<?xml version="1.0" standalone="no"?>
<!DOCTYPE svg PUBLIC "-//W3C//DTD SVG 20010904//EN"
 "http://www.w3.org/TR/2001/REC-SVG-20010904/DTD/svg10.dtd">
<svg version="1.0" xmlns="http://www.w3.org/2000/svg"
 width="200.000000pt" height="200.000000pt" viewBox="0 0 200.000000 200.000000"
 preserveAspectRatio="xMidYMid meet">
<metadata>
Created by potrace 1.10, written by Peter Selinger 2001-2011
</metadata>
<g transform="translate(0.000000,200.000000) scale(0.100000,-0.100000)"
fill="#000000" stroke="none">
<path d="M545 1749 c-33 -5 -61 -13 -63 -19 -2 -5 -13 -10 -25 -10 -12 0 -33
-9 -47 -20 -14 -11 -31 -20 -37 -20 -7 0 -13 -4 -13 -10 0 -5 -5 -10 -11 -10
-6 0 -27 -15 -47 -34 -21 -19 -49 -45 -64 -58 -31 -26 -88 -133 -88 -163 1
-11 12 -28 26 -38 24 -18 30 -18 135 -2 60 9 121 20 135 25 14 6 30 8 35 4 5
-3 15 -2 22 3 6 4 23 8 37 9 14 1 39 5 55 8 17 4 51 8 77 9 25 1 50 5 54 10 4
4 16 7 26 7 10 0 40 20 66 44 46 43 50 44 86 36 37 -8 55 -23 56 -45 1 -5 5
-29 9 -52 9 -48 0 -73 -21 -56 -7 6 -35 14 -63 17 -40 4 -44 4 -20 -4 17 -5
43 -12 58 -15 15 -3 25 -10 22 -15 -4 -6 13 -8 42 -5 185 21 273 50 115 39
l-89 -7 -8 34 c-4 19 -9 41 -10 49 -1 8 -5 26 -10 39 -5 16 -4 21 4 17 17 -11
14 49 -4 64 -21 18 -48 5 -40 -20 5 -16 2 -20 -19 -20 -13 0 -36 4 -50 10 -22
8 -26 16 -26 47 0 31 -9 47 -43 85 -24 26 -57 52 -73 59 -39 15 -116 19 -189
8z m152 -33 c12 -1 26 -6 30 -10 5 -5 2 -6 -6 -1 -9 5 -12 4 -7 -3 4 -6 12 -9
20 -6 14 5 106 -88 106 -107 0 -7 -12 4 -27 24 -37 48 -51 47 -18 0 23 -34 24
-39 9 -50 -14 -10 -12 -12 12 -15 28 -3 27 -4 -18 -28 -26 -13 -45 -27 -43
-31 3 -3 -6 -4 -19 -2 -17 4 -27 -1 -36 -16 -9 -17 -15 -19 -30 -11 -13 7 -28
7 -47 -1 -20 -7 -29 -7 -31 1 -3 8 -9 7 -21 -3 -21 -18 -59 -28 -63 -15 -2 5
-16 3 -32 -6 -16 -8 -33 -13 -38 -10 -4 3 -8 1 -8 -4 0 -6 -14 -15 -30 -21
-29 -9 -30 -9 -19 11 16 29 -3 45 -30 26 -23 -16 -18 -30 7 -21 9 4 13 2 9 -4
-4 -6 -28 -11 -53 -10 -42 0 -47 3 -62 34 -12 26 -20 32 -36 28 -21 -6 -21 -6
0 7 12 7 19 20 17 28 -3 10 2 8 12 -5 17 -20 17 -20 11 2 -6 18 -3 21 16 17
18 -3 18 -2 -4 7 -25 10 -26 11 -10 28 15 15 18 15 29 1 10 -13 11 -12 7 6 -4
17 0 23 20 28 14 3 25 10 25 14 -4 27 1 34 17 22 8 -8 14 -9 13 -4 -1 5 -1 18
0 29 1 18 2 19 12 3 12 -21 31 -24 23 -4 -3 8 0 17 7 22 8 4 10 3 5 -4 -11
-18 2 -14 23 7 11 11 29 17 45 16 14 -2 24 1 20 6 -3 5 0 9 6 9 6 0 8 4 5 10
-4 6 6 8 25 6 17 -2 33 1 36 5 3 5 26 6 52 3 26 -4 57 -7 69 -8z m-447 -316
c0 -11 -6 -20 -14 -20 -21 0 -31 21 -15 31 22 14 29 11 29 -11z"/>
<path d="M710 1644 c0 -12 7 -27 15 -34 8 -7 15 -17 15 -22 0 -5 -14 2 -31 16
-33 28 -70 41 -91 33 -7 -3 0 -6 15 -6 16 -1 26 -5 22 -10 -3 -5 -1 -13 5 -16
8 -5 8 -11 0 -20 -8 -9 -7 -14 4 -18 9 -4 13 -1 11 6 -3 7 0 19 5 27 9 13 13
11 30 -10 19 -25 19 -25 -3 -31 -21 -5 -21 -5 -2 -10 29 -8 45 0 38 19 -6 15
-5 15 10 3 11 -9 17 -10 17 -2 0 6 -4 11 -9 11 -5 0 -18 19 -29 43 -15 30 -21
36 -22 21z"/>
<path d="M555 1557 c20 -16 20 -16 0 -18 -11 -1 -27 0 -35 1 -12 1 -12 -1 -3
-11 9 -9 18 -10 36 -2 13 6 37 9 53 7 16 -2 21 -1 12 2 -10 3 -18 9 -18 13 0
4 -6 8 -12 8 -7 0 -22 4 -33 8 -20 8 -20 8 0 -8z"/>
<path d="M622 1513 c-24 -14 -41 -28 -38 -31 3 -2 12 1 20 7 8 7 19 11 23 8 4
-3 16 6 26 19 10 13 17 24 15 23 -2 -1 -22 -12 -46 -26z"/>
<path d="M709 1530 c-1 -3 -1 -8 0 -12 0 -4 -8 -10 -19 -13 -22 -7 -26 -20
-10 -30 6 -4 9 -1 8 6 -2 8 16 20 44 29 61 20 65 25 17 25 -21 0 -40 -2 -40
-5z"/>
<path d="M450 1519 c0 -8 -14 -9 -47 -5 l-48 6 40 -15 c39 -14 75 -12 75 5 0
5 -4 12 -10 15 -5 3 -10 1 -10 -6z"/>
<path d="M550 1508 c-37 -10 -75 -38 -52 -38 15 0 92 38 92 45 0 3 -1 5 -2 4
-2 0 -19 -5 -38 -11z"/>
<path d="M1223 1699 c-78 -15 -153 -68 -153 -109 0 -10 -5 -22 -11 -26 -7 -4
-9 -21 -5 -45 6 -35 4 -40 -25 -54 -36 -19 -33 -31 4 -14 21 10 30 8 55 -9 40
-29 139 -30 238 -3 22 6 53 12 70 14 58 7 151 40 163 59 10 16 9 24 -3 44 -30
45 -72 81 -126 106 -85 40 -139 50 -207 37z m121 -28 c3 -4 -5 -6 -18 -4 -13
3 -26 1 -29 -4 -3 -5 6 -10 20 -11 34 -3 41 -10 23 -23 -12 -9 -10 -9 5 -3 38
14 88 17 81 5 -5 -7 1 -11 16 -11 l23 0 -22 -18 c-17 -12 -20 -21 -13 -32 8
-13 10 -13 10 1 0 25 30 32 46 12 18 -24 17 -33 -3 -33 -14 0 -15 2 -5 9 10 6
9 10 -7 14 -15 3 -21 0 -21 -10 0 -11 -7 -14 -23 -10 -12 4 -29 2 -37 -3 -10
-6 8 -9 53 -8 37 0 70 -2 74 -6 14 -13 -11 -21 -64 -20 -56 2 -61 -11 -8 -20
32 -5 -73 1 -140 9 l-40 4 45 -10 c42 -10 43 -12 25 -25 -13 -10 -32 -13 -56
-9 -22 4 -40 2 -44 -4 -4 -8 -12 -8 -26 -1 -15 9 -19 7 -19 -5 0 -11 -4 -13
-17 -6 -10 5 -37 15 -61 22 -32 9 -39 15 -28 21 11 6 14 17 10 36 -4 19 0 33
11 42 14 11 16 11 13 -1 -2 -8 3 -13 11 -11 9 2 12 -4 8 -17 -3 -12 1 -22 10
-25 10 -4 13 -2 10 8 -3 8 1 17 9 20 7 3 13 0 11 -6 -1 -6 4 -13 11 -15 11 -4
12 -1 3 15 -19 35 -14 51 17 49 20 -1 27 3 27 15 0 10 9 24 20 32 11 9 15 16
8 16 -6 0 -15 -4 -18 -10 -3 -5 -11 -10 -16 -10 -6 0 -7 5 -4 10 3 6 1 10 -5
10 -7 0 -9 -7 -6 -15 3 -8 9 -22 12 -30 3 -8 2 -15 -4 -15 -6 0 -12 5 -14 12
-3 8 -15 2 -32 -16 -21 -20 -31 -25 -40 -16 -8 8 -8 13 1 18 8 5 9 13 3 22
-14 22 -12 34 4 21 11 -9 15 -7 19 10 3 11 10 18 16 15 6 -4 19 -2 30 3 14 8
21 8 24 -2 3 -9 6 -8 11 3 7 17 91 26 100 11z"/>
<path d="M1282 1595 c-16 -13 -33 -21 -37 -17 -5 4 -5 2 -1 -5 3 -6 -3 -18
-15 -26 -11 -8 -17 -17 -12 -20 4 -2 30 18 56 44 52 53 56 64 9 24z"/>
<path d="M1370 1574 c0 -17 -39 -34 -80 -34 -16 0 -31 -4 -35 -9 -3 -6 15 -9
42 -8 27 1 55 -1 63 -4 8 -3 12 -4 8 -2 -15 8 -8 32 12 46 18 12 18 15 5 20
-9 4 -15 1 -15 -9z"/>
<path d="M1145 1494 c-27 -7 -41 -13 -30 -14 11 -1 30 -3 43 -4 12 -2 22 1 22
6 0 4 16 6 35 3 20 -2 33 0 30 4 -9 15 -49 17 -100 5z"/>
<path d="M626 1355 c-27 -14 -52 -23 -55 -20 -6 6 -81 -65 -81 -77 0 -5 -13
-26 -29 -49 -49 -67 -66 -131 -65 -249 1 -127 9 -152 104 -305 87 -141 139
-199 243 -272 l82 -58 115 1 c65 1 145 9 183 18 171 40 364 248 419 450 66
240 7 460 -144 537 -32 16 -55 20 -125 18 -81 -3 -164 -17 -178 -31 -4 -4 3
-12 16 -18 19 -11 21 -10 15 5 -5 15 -1 17 31 11 27 -4 32 -3 18 4 -19 8 -19
9 2 9 12 1 23 -4 25 -10 3 -8 14 -8 43 0 22 6 57 11 77 11 42 0 62 -22 104
-117 14 -32 32 -72 40 -90 8 -18 15 -54 15 -80 4 -271 3 -298 -19 -371 -15
-47 -32 -81 -49 -95 -14 -12 -62 -59 -106 -105 -55 -56 -92 -85 -116 -92 -20
-6 -104 -13 -186 -17 -161 -6 -210 1 -252 40 -20 18 -21 22 -8 41 18 24 19 47
4 43 -6 -1 -13 3 -16 9 -2 6 10 14 27 17 26 6 30 11 30 37 0 39 -16 70 -36 70
-9 0 -24 10 -34 23 -10 12 -22 19 -26 14 -4 -4 2 -14 14 -23 12 -8 20 -20 17
-25 -4 -5 -1 -9 5 -9 6 0 20 -9 31 -19 25 -23 18 -61 -11 -61 -20 0 -32 22
-24 44 3 8 1 17 -5 21 -7 4 -11 -5 -11 -24 0 -16 5 -33 11 -37 8 -5 8 -9 -1
-14 -8 -5 -7 -12 5 -24 9 -9 14 -23 11 -32 -7 -18 -26 -9 -26 13 0 10 -6 13
-16 9 -16 -6 -43 20 -71 68 -8 14 -12 16 -13 7 0 -17 -50 47 -50 64 0 7 -11
24 -25 39 -13 14 -21 26 -18 26 4 0 2 5 -5 12 -7 7 -12 21 -12 31 0 13 -5 17
-15 13 -8 -3 -15 0 -15 6 0 6 -7 19 -16 29 -12 13 -16 43 -18 123 -1 63 1 103
7 99 6 -3 8 10 5 33 -3 21 1 50 9 64 7 14 13 35 13 46 0 39 30 95 73 135 23
21 48 39 55 39 6 0 12 3 12 8 0 14 85 41 129 41 l43 0 -21 -23 c-11 -12 -21
-28 -21 -35 0 -7 12 1 26 18 21 25 34 31 67 32 36 1 38 2 16 9 -14 4 -59 10
-100 14 -67 6 -79 4 -123 -19z m860 -140 c37 -65 45 -85 34 -85 -5 0 -7 -7 -4
-15 4 -8 10 -13 15 -10 4 3 11 -11 15 -31 5 -27 1 -46 -15 -76 -21 -40 -21
-40 -1 -35 24 6 26 -10 5 -37 -17 -23 -20 -40 -5 -31 12 7 13 -5 2 -20 -19
-26 -29 -12 -24 36 2 27 0 49 -5 49 -10 0 -10 66 0 77 4 3 3 11 -2 17 -5 6
-14 36 -21 66 -7 30 -16 60 -21 66 -5 6 -20 37 -34 68 l-26 58 29 -23 c16 -13
42 -46 58 -74z m39 -395 c-8 -16 -15 -33 -14 -37 0 -4 -4 -9 -9 -11 -5 -1 -7
10 -5 25 7 45 12 53 28 53 14 0 14 -3 0 -30z"/>
<path d="M836 1332 c-14 -13 -4 -22 24 -22 17 0 30 5 30 10 0 6 -3 10 -7 11
-5 0 -16 2 -25 4 -9 2 -19 0 -22 -3z"/>
<path d="M977 1301 c3 -13 11 -18 21 -14 14 5 15 3 5 -8 -7 -7 -13 -20 -13
-28 1 -12 3 -11 12 4 11 19 11 19 19 0 7 -19 8 -19 8 1 1 19 -17 41 -46 57 -7
5 -9 0 -6 -12z"/>
<path d="M1030 1301 c0 -10 50 -25 57 -17 3 2 2 9 -2 15 -8 13 -55 15 -55 2z"/>
<path d="M962 1197 c-23 -20 -38 -38 -32 -42 5 -3 10 -2 10 3 0 10 44 25 57
20 15 -6 1 -53 -20 -70 -29 -23 -37 -22 -37 1 0 26 -16 35 -24 15 -14 -36 -7
-51 24 -49 45 3 80 40 79 84 0 20 -4 44 -8 54 -6 17 -11 16 -49 -16z"/>
<path d="M688 1129 l-33 -31 30 20 c64 42 114 40 165 -8 16 -15 30 -24 30 -20
0 4 -16 22 -35 39 -50 44 -111 44 -157 0z"/>
<path d="M1044 1130 c0 -16 4 -30 8 -30 5 0 8 -6 8 -14 0 -7 7 -19 15 -26 12
-10 15 -10 15 3 0 9 -4 19 -10 22 -5 3 -10 17 -10 29 0 13 -6 29 -14 35 -11 9
-13 6 -12 -19z"/>
<path d="M1163 1148 c-13 -6 -23 -15 -23 -20 0 -5 14 -1 31 8 30 15 60 15 104
0 13 -5 11 -2 -5 8 -29 18 -75 19 -107 4z"/>
<path d="M696 1095 c-38 -35 -56 -85 -56 -153 0 -170 159 -242 229 -104 43 86
33 187 -24 247 -28 30 -39 35 -77 35 -34 0 -52 -6 -72 -25z m119 -11 c31 -20
55 -83 55 -144 0 -92 -39 -150 -100 -150 -71 0 -110 55 -110 155 0 95 39 155
103 155 15 0 38 -7 52 -16z"/>
<path d="M701 1014 c-40 -51 -18 -144 35 -144 82 0 99 160 18 168 -25 2 -37
-3 -53 -24z m90 -30 c17 -46 -21 -97 -67 -90 -25 4 -41 48 -28 83 12 34 44 44
44 14 0 -15 -6 -21 -21 -21 -15 0 -20 -5 -17 -21 4 -30 33 -47 56 -33 23 15
29 72 8 80 -9 3 -16 10 -16 15 0 17 32 -4 41 -27z"/>
<path d="M1152 1095 c-93 -78 -81 -265 21 -318 120 -62 222 126 147 272 -37
73 -112 93 -168 46z m128 -23 c73 -73 58 -237 -25 -277 -90 -42 -161 55 -140
190 15 102 103 148 165 87z"/>
<path d="M1203 1032 c-19 -12 -33 -60 -27 -91 8 -39 39 -71 69 -71 25 0 55 33
55 60 -1 9 -7 4 -15 -12 -12 -21 -20 -26 -42 -22 -35 7 -43 12 -52 37 -10 26
5 73 25 81 8 3 14 1 14 -3 0 -5 -7 -12 -16 -15 -10 -4 -14 -16 -12 -37 4 -39
30 -59 56 -43 26 16 27 50 3 57 -27 7 -28 37 -2 37 12 0 23 -11 29 -27 9 -25
10 -26 11 -5 2 43 -59 78 -96 54z"/>
<path d="M651 800 c53 -84 156 -89 214 -12 18 25 16 24 -20 -5 -58 -48 -110
-46 -167 5 -33 29 -39 31 -27 12z"/>
<path d="M1266 759 c-10 -6 -39 -9 -64 -6 -42 5 -45 4 -27 -9 10 -8 29 -14 42
-14 23 0 83 26 83 35 0 8 -14 5 -34 -6z"/>
<path d="M1121 653 c1 -48 3 -53 9 -28 11 45 11 85 0 85 -6 0 -9 -25 -9 -57z"/>
<path d="M863 506 c24 -19 21 -27 -9 -22 -15 3 -24 2 -20 -1 11 -12 45 -13 51
-2 8 12 -13 39 -29 39 -6 0 -3 -7 7 -14z"/>
<path d="M1067 456 c-3 -8 -18 -16 -34 -19 -23 -3 -22 -4 10 -6 31 -1 37 2 37
19 0 23 -6 26 -13 6z"/>
<path d="M1167 459 c-11 -6 -30 -9 -43 -6 -14 2 -27 0 -30 -4 -9 -15 61 -10
82 6 22 17 17 19 -9 4z"/>
</g>
</svg>
